<?xml version="1.0" encoding="UTF-8" standalone="no"?>
<!-- Generator: Adobe Illustrator 19.2.1, SVG Export Plug-In . SVG Version: 6.00 Build 0)  -->

<svg
   version="1.1"
   id="layer"
   x="0px"
   y="0px"
   viewBox="0 0 365.69962 301.70001"
   xml:space="preserve"
   width="365.69962"
   height="301.70001"
   xmlns="http://www.w3.org/2000/svg"
   xmlns:svg="http://www.w3.org/2000/svg"><defs
   id="defs26" />
<style
   type="text/css"
   id="style1">
	.st0{fill:#99999A;}
	.st1{fill:#FFFFFF;}
	.st2{fill:#E60012;}
	.st3{fill:#005BAC;}
</style>
<g
   id="g26"
   transform="translate(-137.90039,-71.7)">
	
	
	
	
	
	
	
	
	
	
	
	
	
	
	
	
	
	
	
	<path
   class="st0"
   d="m 314.5,134 c 5.8,0 11.4,0.5 16.7,1.5 l 12.7,-13.2 c -8.9,-3.1 -18.9,-4.8 -29.4,-4.8 -17.9,0 -34.2,5 -46.3,13.1 l 11.1,10.5 c 10.2,-4.5 22.3,-7.1 35.2,-7.1"
   id="path12" />
	<path
   class="st1"
   d="m 314.5,117.4 c 10.6,0 20.5,1.7 29.4,4.8 l 13.8,-14.4 c -12.9,-5.1 -27.6,-8 -43.3,-8 -23.3,0 -44.6,6.4 -60.8,17 l 14.5,13.7 c 12.2,-8.1 28.5,-13.1 46.4,-13.1"
   id="path13" />
	<path
   class="st0"
   d="m 248.1,173.7 c 1.2,-4.8 3.3,-9.3 6.3,-13.4 l -5.6,-5.6 c -1.1,3.5 -1.7,7.1 -1.7,10.8 0,2.8 0.4,5.6 1,8.2"
   id="path14" />
	<path
   class="st0"
   d="M 207,204.9 204.7,217 228,207 c -1.5,-3.1 -1.8,-7.1 -2.6,-10.4 z"
   id="path15" />
	<polygon
   class="st0"
   points="172.8,258.8 206.2,71.7 190.6,73.1 156.9,257.5 "
   id="polygon15" />
	<path
   class="st2"
   d="M 303.8,179.2 V 164.3 L 279.3,141.1 268.2,130.6 253.7,116.9 206,71.7 l -33.4,187.1 70.6,-31 c -7,-6.2 -12,-12.8 -15.7,-20.6 l -23,9.9 2.3,-12.1 14.9,-77.6 1.2,-6.5 12.3,12.4 15.8,15.9 6.8,6.8 27.9,24 -27.1,12.4 c 7,7 15.4,13.2 26.6,16.7 L 319,193.9 Z"
   id="path16" />
	<path
   class="st0"
   d="m 380.9,173.7 c 0.7,-2.7 1,-5.5 1,-8.3 0,-8.3 -3,-16.2 -8.3,-23 l -8,8.3 c 7.7,6.5 13.2,14.4 15.3,23"
   id="path17" />
	<path
   class="st0"
   d="m 396,252.7 -19,-18.3 c -3,2.1 -6.3,4 -9.7,5.8 l 28.7,27.6 88.6,-92.3 -0.1,-14.9 z"
   id="path18" />
	<path
   class="st0"
   d="m 331.5,190.7 -15.7,-15 -12,-11.4 v 14.9 l 16.9,16.2 16.1,15.5 c 4.1,-1 8,-2.3 11.7,-3.8 z"
   id="path19"
   style="display:inline" />
	<polygon
   class="st0"
   points="388.4,127.2 393,122.3 441.7,169 449.3,161.2 393,107.3 380.4,120.4 366.5,134.9 357,144.8 339.1,163.5 346.6,170.7 365.7,150.8 373.7,142.5 "
   id="polygon19"
   style="display:inline" />
	<path
   class="st1"
   d="m 388.4,127.2 -14.6,15.2 c 5.2,6.8 8.2,14.7 8.2,23 0,2.8 -0.4,5.6 -1,8.3 -1.7,7 -5.5,13.5 -11,19.1 -5.6,5.8 -12.9,10.6 -21.5,14.1 -3.7,1.5 -7.6,2.8 -11.7,3.8 -6.9,1.7 -14.4,2.7 -22.2,2.7 -9.6,0 -18.7,-1.4 -26.9,-4 -11.2,-3.5 -20.9,-9.1 -27.9,-16.2 -2.6,-2.6 -4.8,-5.3 -6.6,-8.2 -2.3,-3.6 -3.9,-7.4 -4.9,-11.4 -0.7,-2.7 -1,-5.5 -1,-8.3 0,-3.7 0.6,-7.3 1.7,-10.8 l -16.8,-17 c -6.2,9.1 -9.6,19.4 -9.6,30.3 0,2.8 0.3,5.6 0.7,8.3 1.1,6.6 3.4,12.9 6.9,18.7 1.7,3 3.7,5.8 6,8.5 5.9,7.1 13.5,13.4 22.5,18.5 15.5,8.8 35,14.1 56.1,14.1 14.8,0 28.7,-2.6 41.1,-7.1 3.8,-1.4 7.4,-3 10.8,-4.7 8,-4 15,-9 21,-14.6 9.9,-9.5 16.5,-20.9 18.6,-33.4 0.4,-2.7 0.7,-5.5 0.7,-8.3 -0.3,-15.1 -7.2,-29.2 -18.6,-40.6"
   id="path20"
   style="display:inline" />
	<path
   class="st3"
   d="m 331.4,190.8 16.9,16.2 c 8.5,-3.6 15.9,-8.3 21.5,-14.1 l -23.2,-22.3 -7.5,-7.2 17.9,-18.6 9.5,-9.9 13.9,-14.5 12.6,-13.1 56.1,53.9 -7.5,7.8 -46,47.9 c -4.8,6.6 -11.1,12.5 -18.5,17.6 l 18.9,18.2 88.6,-92.2 -92.4,-88.5 -34.5,36 -13.8,14.4 -12.7,13.3 -27.3,28.6 z"
   id="path21"
   style="display:inline" />
	<path
   class="st0"
   d="m 253.4,185.6 0.5,0.8 c 1.4,2.2 3.2,4.1 5,6.1 l 27.6,-12.7 -63.3,-59 -1.7,9.1 49.7,49.2 z"
   id="path22" />
	<path
   class="st0"
   d="m 406.7,168 c 0,2.8 -0.3,5.6 -0.7,8.3 -2,12.5 -8.7,23.9 -18.6,33.4 -5.9,5.6 -13,10.6 -21,14.6 -3.4,1.7 -7,3.3 -10.8,4.7 -12.4,4.6 -26.3,7.1 -41.1,7.1 -21.1,0 -40.6,-5.3 -56.1,-14.1 -8.9,-5.1 -16.6,-11.4 -22.5,-18.5 -2.3,-2.7 -4.3,-5.6 -6,-8.5 -3.4,-5.9 -5.8,-12.2 -6.9,-18.7 -0.4,-2.7 -0.7,-5.5 -0.7,-8.3 0,-0.9 0.1,-1.8 0.1,-2.6 v -0.2 c -0.5,2.7 -0.1,16.5 -0.1,19.3 0,4.4 0.6,8.8 1.7,13 0.9,3.3 2,6.5 3.5,9.6 3.7,7.8 9.3,15 16.3,21.2 16.9,14.9 42.3,24.4 70.7,24.4 19.7,0 37.9,-4.6 52.9,-12.4 3.4,-1.8 6.6,-3.7 9.7,-5.8 7.4,-5.1 13.7,-11.1 18.6,-17.7 7,-9.6 11,-20.6 11,-32.3 0,-2.5 0.2,-14.1 0,-18.8 -0.1,-0.6 0,1.5 0,2.3"
   id="path23" />
	
	
	
	<polygon
   points="442,306.5 416.6,306.5 424.5,280 503.6,280 498,306.5 474.6,306.5 459,371.5 426.5,371.5 "
   id="polygon25" />
	
	<path
   d="m 340.8,369.2 c 9.2,2.7 19.2,4.2 28.5,4.2 12.7,0 22.4,-2.9 30.8,-8.9 9.3,-6.6 15.2,-16.7 15.2,-25.9 0,-6.2 -2.7,-11.8 -7.5,-15.8 -3.7,-3 -7.6,-5.4 -15.5,-9.1 l -6.4,-3 c -2.1,-1.1 -3.1,-2.2 -3.1,-3.4 0,-3.3 4.2,-5.8 9.9,-5.8 4.3,0 9.3,1.2 19,4.4 l 6.7,-24.8 c -7.2,-2 -14.3,-2.9 -21.3,-2.9 -26.6,0 -47.1,14.5 -47.1,33.3 0,9.9 6.6,16.9 23,24.6 7.8,3.6 9.1,4.5 9.1,7 0,3.7 -4,6 -10.6,6 -5.8,0 -13.3,-1.8 -23.5,-5.5 v 0 z"
   id="path26" /><path
   d="m 271.9,280.6 2.1,-0.3 c 10.5,-1.2 23.5,-2.1 30.6,-2.1 12,0 21.2,1.4 28.2,4.3 9,3.7 14.3,11.8 14.3,21.5 0,8.4 -2.8,16.3 -8.2,22.5 -4.6,5.4 -8.8,8 -17.5,10.6 l -2.1,0.7 c 0.9,0.7 1.2,1 1.6,1.4 2.5,2.9 10.2,17.7 16.6,32.4 h -35.9 c -4.6,-13 -6,-16.5 -12.1,-31.3 l -7.2,31.3 h -31.7 z m 24,43.1 c 10.5,0 17.8,-6.2 17.8,-15 0,-4.7 -3.4,-7 -10.2,-7 -1.9,0 -3,0.1 -5.1,0.5 l -4.9,21.1 c 1.1,0.2 1.2,0.4 2.4,0.4"
   id="path24" /><polygon
   points="242.1,371.5 209.6,371.5 230.8,280 263.4,280 "
   id="polygon24" /><path
   d="m 159.19922,280 -21.29883,91.5 H 170.5 l 7.5,-31.90039 h 31.09961 l 5.5,-22.5 h -31.5 L 186,304.30078 h 30.30078 L 222.19922,280 Z"
   style="baseline-shift:baseline;display:inline;overflow:visible;vector-effect:none;enable-background:accumulate;stop-color:#000000;stop-opacity:1"
   id="path27" />
</g>
</svg>
