<?xml version="1.0" encoding="UTF-8" standalone="no"?>
<svg
   width="162.25127pt"
   height="162.25102pt"
   viewBox="0 0 162.25127 162.25102"
   version="1.1"
   id="svg19"
   xmlns="http://www.w3.org/2000/svg"
   xmlns:svg="http://www.w3.org/2000/svg">
  <defs
     id="defs2">
    <clipPath
       id="clip1">
      <path
         d="m 327,31 h 111.10156 v 71 H 327 Z m 0,0"
         id="path1" />
    </clipPath>
  </defs>
  <g
     id="surface1"
     transform="translate(-275.85029,3.5512835)">
    <path
       style="fill:#949ca1;fill-opacity:1;fill-rule:nonzero;stroke:none"
       d="m 340.61328,42.195313 c 4.85938,0 8.78906,-2.230469 8.83203,-4.914063 0.0352,-2.601562 -3.63281,-4.648437 -8.21484,-4.648437 -4.60156,0 -8.52735,2.046875 -8.82422,4.648437 -0.29688,2.683594 3.36328,4.914063 8.20703,4.914063"
       id="path3" />
    <path
       style="fill:#949ca1;fill-opacity:1;fill-rule:nonzero;stroke:none"
       d="m 282.17969,45.460938 c 3.25781,0 6.4414,-1.53125 7.08984,-3.40625 0.64453,-1.828125 -1.38672,-3.277344 -4.54297,-3.277344 -3.14844,0 -6.29687,1.449219 -7.04687,3.277344 -0.78516,1.875 1.22265,3.40625 4.5,3.40625"
       id="path4" />
    <path
       style="fill:#007fc7;fill-opacity:1;fill-rule:nonzero;stroke:none"
       d="m 327.21094,34.171875 c 2.23047,0 4.14453,-0.988281 4.28515,-2.1875 0.14844,-1.195312 -1.49218,-2.140625 -3.66015,-2.140625 -2.17969,0 -4.08985,0.945313 -4.29297,2.140625 -0.19531,1.199219 1.4375,2.1875 3.66797,2.1875"
       id="path5" />
    <path
       style="fill:#949ca1;fill-opacity:1;fill-rule:nonzero;stroke:none"
       d="m 376.12109,92.550781 c -0.51562,-4.871093 -6.13281,-8.652343 -12.64062,-8.652343 -0.0742,0 -0.14063,0.0078 -0.22266,0.01563 -12.57422,-0.01172 -13.65234,-0.824219 -13.5664,-9.453125 0.0469,-4.144532 -4.75391,-7.367188 -10.75391,-7.367188 -6.00391,0 -11.21094,3.222656 -11.69531,7.367188 -0.50391,4.316406 4.26562,7.925781 10.71875,7.925781 12.72265,0 13.79297,0.753906 13.79297,10.175781 -0.008,10.257805 -1.19532,11.164055 -15.14844,11.164055 -7.08203,0 -13.30469,4.50782 -13.98438,10.32813 -0.70312,6.10547 4.90235,11.25 12.60938,11.25 7.73047,0 13.98828,-5.14453 14.05078,-11.25 0.12109,-11.15235 1.29297,-12.1211 14.89844,-12.1328 0.082,0 0.17187,0.0195 0.25781,0.0195 7.01562,0 12.22656,-4.26953 11.68359,-9.367186 0,-0.01172 0,-0.01172 0,-0.01172 0,0 0,-0.0078 0,-0.01172"
       id="path6" />
    <path
       style="fill:#007fc7;fill-opacity:1;fill-rule:nonzero;stroke:none"
       d="m 326.49219,63.929688 v -0.0039 c 0,-0.0078 0,-0.01172 0,-0.01172 0.48047,-3.75 -3.7461,-6.664063 -9.45703,-6.664063 -0.0703,0 -0.14063,0.01563 -0.21485,0.01563 -11.05469,-0.01563 -11.84765,-0.636719 -10.21875,-7.34375 0.76953,-3.246094 -2.89062,-5.78125 -8.21484,-5.78125 -5.32813,0 -10.50391,2.535156 -11.63281,5.78125 -1.17579,3.359375 2.42187,6.164063 8.10156,6.164063 11.1875,0 11.99609,0.585937 10.30859,7.820312 0,0.0078 0,0.0078 0,0.0078 -1.8125,7.820312 -2.99609,8.511718 -15.14453,8.511718 -6.15234,0 -12.30469,3.398438 -13.82031,7.769532 -1.59375,4.554687 2.41797,8.367187 9.05859,8.367187 6.6211,0 12.89453,-3.8125 14,-8.367187 2.02735,-8.40625 3.22266,-9.132813 15.08203,-9.140625 0.082,0 0.14063,0.01172 0.21094,0.01172 6.10938,0 11.46094,-3.242187 11.94141,-7.136718"
       id="path7" />
    <g
       clip-path="url(#clip1)"
       clip-rule="nonzero"
       id="g8">
      <path
         style="fill:#007fc7;fill-opacity:1;fill-rule:nonzero;stroke:none"
         d="m 437.60156,69.753906 c -1.96094,-4.710937 -9.08203,-8.359375 -16.03515,-8.359375 -6.96485,0 -11.52344,3.648438 -10.17188,8.359375 2.86328,9.921875 1.85547,10.859375 -12.97266,10.863282 -0.082,0 -0.15625,-0.0039 -0.22656,-0.0039 -14.875,0 -16.42578,-0.882812 -17.78515,-10.5 -0.0117,-0.121093 -0.008,-0.234375 -0.0234,-0.355468 -0.39844,-2.941407 -2.94531,-5.472657 -6.49219,-6.957032 -2.13672,-0.894531 -4.63281,-1.410156 -7.25,-1.410156 -0.0781,0 -0.13672,0.0078 -0.20312,0.0078 -13.50391,-0.0039 -14.66407,-0.789063 -14.65625,-9.0625 0,-0.01172 -0.008,-0.02734 -0.008,-0.03125 0,-0.0078 0.008,-0.02344 0.008,-0.02734 0.004,-7.65625 1.0625,-8.269531 13.58984,-8.269531 6.34766,0 11.05859,-2.9375 10.57031,-6.445313 -0.46094,-3.371094 -5.58594,-5.992187 -11.50781,-5.992187 -5.91016,0 -10.64063,2.621093 -10.60938,5.992187 0.0781,7.058594 -0.97265,7.683594 -13.58984,7.683594 -6.38672,0 -11.92969,3.070312 -12.44141,7.03125 -0.008,0.0078 0,0.01953 0,0.02734 0,0.0078 -0.008,0.01953 -0.008,0.03125 -0.52344,4.128906 4.60156,7.597656 11.50391,7.597656 13.53515,0 14.77734,0.730469 14.89453,9.640625 0,0.05469 -0.0273,0.113281 -0.0273,0.171875 0.0312,2.789062 2,5.320312 5.0664,7 2.38281,1.3125 5.42969,2.113281 8.73828,2.113281 0.14063,0 0.27344,-0.01563 0.41407,-0.01563 14.5039,0.02344 15.91015,0.992188 17.53125,11.871094 0.0664,0.367187 0.14062,0.742187 0.24609,1.113281 1.59766,5.507813 8.68359,9.976566 16.53906,9.976566 8.38281,0 13.73438,-5.074222 12.08203,-11.082035 0,-0.0078 0,-0.0078 -0.008,-0.0078 v -0.0078 c -3.03516,-10.972656 -2.00391,-11.859375 12.92578,-11.859375 7.57031,0 11.94922,-4.148437 9.90625,-9.09375"
         id="path8" />
    </g>
    <path
       style="fill:#949ca1;fill-opacity:1;fill-rule:nonzero;stroke:none"
       d="m 371.10156,47.070313 c -4.90625,0 -8.71875,2.367187 -8.54297,5.390625 0.17969,3.128906 4.50782,5.71875 9.69922,5.71875 5.19922,0 8.9961,-2.589844 8.51563,-5.71875 -0.89063,-5.847657 -0.15625,-6.347657 9.32422,-6.351563 0.10546,0 0.20312,0.01563 0.30078,0.01563 9.59375,-0.07813 10.54687,0.394531 12.24609,6.261719 0.004,0.01953 0.0273,0.04297 0.0312,0.0625 1.61328,6.105469 0.83203,6.65625 -9.38672,6.65625 -5.21484,0 -8.98047,2.691406 -8.42187,6.136719 0.57031,3.558593 5.53906,6.523437 11.10156,6.523437 5.55469,0 9.26562,-2.964844 8.34766,-6.523437 -1.72657,-6.679688 -1.01563,-7.226563 9.20703,-7.226563 0.0586,0 0.0898,0.0039 0.14062,0.0039 0.5625,-0.0039 1.08203,-0.05469 1.59375,-0.121093 0.0469,-0.0039 0.0977,0 0.15235,-0.01172 0.47265,-0.05859 0.91406,-0.160156 1.34375,-0.273438 0.0976,-0.02344 0.20703,-0.03516 0.30078,-0.0625 0.34765,-0.09766 0.66015,-0.234375 0.97656,-0.371093 0.14844,-0.05859 0.29687,-0.101563 0.4375,-0.167969 0.23047,-0.117188 0.42187,-0.261719 0.63281,-0.398438 0.16406,-0.101562 0.33985,-0.195312 0.49219,-0.308593 0.14062,-0.121094 0.23828,-0.25 0.35547,-0.367188 0.17187,-0.164062 0.33984,-0.316406 0.47265,-0.5 0.0703,-0.08984 0.10157,-0.203125 0.15625,-0.296875 0.14063,-0.222656 0.27344,-0.445312 0.33985,-0.683594 0.0195,-0.06641 0.0156,-0.144531 0.0234,-0.21875 0.0742,-0.277343 0.1289,-0.558593 0.11718,-0.855468 -0.008,-0.03906 -0.0351,-0.08594 -0.0351,-0.136719 -0.0312,-0.304688 -0.0742,-0.625 -0.1836,-0.945313 0,-0.02344 -0.0273,-0.03906 -0.0469,-0.06641 0,-0.0078 0,-0.0078 0,-0.0078 -1.14844,-2.980469 -5.90625,-5.304688 -10.75781,-5.304688 -0.043,0 -0.0859,0 -0.125,0 -0.004,0 -0.004,0 -0.004,0 -9.63672,0.08203 -10.58594,-0.390625 -12.13672,-5.90625 -0.43359,-1.539062 -2.07031,-2.867187 -4.23437,-3.710937 -0.16797,-0.07031 -0.35157,-0.15625 -0.52735,-0.214844 -0.11719,-0.04297 -0.24219,-0.07031 -0.37109,-0.109375 -1.35938,-0.425781 -2.87891,-0.683594 -4.45703,-0.683594 -4.61719,0 -7.98828,2.09375 -7.5625,4.769531 0.88672,5.519532 0.14843,6.003907 -9.51563,6.003907"
       id="path9" />
  </g>
</svg>
