<?xml version="1.0" encoding="UTF-8" standalone="no"?>
<!-- Created with Inkscape (http://www.inkscape.org/) -->

<svg
   version="1.1"
   id="svg1"
   width="300"
   height="300"
   viewBox="0 0 300 300"
   xml:space="preserve"
   xmlns="http://www.w3.org/2000/svg"
   xmlns:svg="http://www.w3.org/2000/svg"><defs
     id="defs1"><clipPath
       clipPathUnits="userSpaceOnUse"
       id="clipPath4"><path
         d="M 0,222.927 H 375 V 0 H 0 Z"
         transform="translate(-79.714202,-125.66121)"
         id="path4" /></clipPath></defs><g
     id="layer-MC0"
     style="display:inline;opacity:1;mix-blend-mode:normal"><path
       id="path1"
       d="M 236,264 H 36 V 72 h 200 z"
       style="display:inline;fill:#004c9b;fill-opacity:1;fill-rule:nonzero;stroke:none;stroke-width:1.06738" /><path
       id="path2"
       d="M 264,228 H 200 V 36 h 64 z"
       style="display:inline;fill:#ffdc00;fill-opacity:1;fill-rule:nonzero;stroke:none;stroke-width:1.60964" /><path
       id="path3"
       d="m 0,0 h -9.378 l -0.384,0.377 v 8.172 l 0.369,0.402 H 0 C 3.428,8.951 4.956,7.57 4.956,4.475 4.956,1.38 3.428,0 0,0 m 4.116,-5.038 c 3.422,0.828 7.269,3.835 7.269,9.513 0,6.227 -4.256,9.944 -11.385,9.944 h -15.798 l -0.393,-0.393 v -32.559 l 0.393,-0.392 h 5.643 l 0.393,0.392 v 12.604 l 0.409,0.461 5.219,-0.016 0.844,-0.461 9.635,-12.531 0.9,-0.449 h 2.786 l 0.393,0.392 v 4.694 l -6.308,8.238 z"
       style="display:inline;fill:#ffffff;fill-opacity:1;fill-rule:nonzero;stroke:none"
       transform="matrix(3.5318222,0,0,-3.5388676,131.18373,161.02693)"
       clip-path="url(#clipPath4)" /></g></svg>
