<?xml version="1.0" encoding="UTF-8" standalone="no"?>
<svg
   width="269.31699"
   height="347.49301"
   viewBox="0 0 269.31699 347.49301"
   version="1.1"
   id="svg23"
   xmlns:xlink="http://www.w3.org/1999/xlink"
   xmlns="http://www.w3.org/2000/svg"
   xmlns:svg="http://www.w3.org/2000/svg">
  <defs
     id="defs1">
    <path
       d="m 245.608,148.575 c -1.592,58.166 -49.21,104.838 -107.761,104.838 -57.81,0 -104.986,-45.489 -107.706,-102.625 C 12.99,143.469 0.965,126.455 0.965,106.628 0.965,80.124 22.452,58.636 48.957,58.636 a 47.855,47.855 0 0 1 18.223,3.59 C 69.908,48.273 82.196,37.74 96.95,37.74 c 8.285,0 15.791,3.325 21.266,8.708 V 12.921 c 0,-6.876 5.625,-12.5 12.5,-12.5 6.875,0 12.5,5.624 12.5,12.5 v 38.727 c 6.59,-8.46 16.864,-13.908 28.416,-13.908 15.64,0 28.944,9.973 33.916,23.904 a 47.88,47.88 0 0 1 16.743,-3.008 c 26.506,0 47.992,21.488 47.992,47.992 0,18.041 -9.959,33.748 -24.675,41.947"
       id="a" />
    <path
       d="M 29.808,150.455 C 12.656,143.136 0.632,126.12 0.632,106.295 0.632,79.789 22.119,58.304 48.624,58.304 a 47.855,47.855 0 0 1 18.223,3.59 c 2.729,-13.955 15.016,-24.487 29.769,-24.487 8.287,0 15.792,3.325 21.267,8.706 V 12.587 c 0,-6.875 5.625,-12.499 12.5,-12.499 6.874,0 12.5,5.624 12.5,12.499 v 38.728 c 6.589,-8.46 16.862,-13.908 28.417,-13.908 15.637,0 28.943,9.973 33.915,23.904 a 47.884,47.884 0 0 1 16.742,-3.007 c 26.506,0 47.994,21.485 47.994,47.99 0,18.042 -9.96,33.75 -24.676,41.947 -1.592,58.167 -49.21,104.839 -107.762,104.839 -57.809,0 -104.985,-45.49 -107.705,-102.625"
       id="c" />
  </defs>
  <g
     fill="none"
     fill-rule="evenodd"
     id="g23"
     transform="translate(-74.078,-34.49)">
    <g
       fill-rule="nonzero"
       id="g7"
       style="display:inline">
      <path
         d="m 213.014,381.983 a 17.638,17.638 0 0 1 -16.628,-11.758 l -43.51,-123.076 h 119.668 l -42.876,123.003 a 17.636,17.636 0 0 1 -16.654,11.83"
         fill="#ffcd85"
         id="path1" />
      <path
         fill="#ffd69f"
         d="m 158.446,262.903 h 11.136 l 27.426,108.836 z"
         id="path2" />
      <path
         d="m 232.572,262.903 -19.861,105.913 c 0,0 -1.663,6.499 -8.854,6.223 -5.778,-0.223 -6.848,-3.3 -6.848,-3.3 0,0 3.94,10.244 16.006,10.244 12.064,0 14.498,-6.164 16.009,-10.244 l 38.028,-108.836 z"
         fill="#f4bd76"
         id="path3" />
      <path
         fill="#e5a85e"
         d="M 267.052,262.903 H 158.445 l -4.502,-12.74 h 117.55 z"
         id="path4" />
      <path
         fill="#ffcd85"
         d="M 297.154,250.164 H 128.265 v -24.459 h 168.89 z"
         id="path5" />
      <path
         d="m 297.155,225.705 v 11.02 c 0,0 -7.62,1.202 -16.404,-2.131 0,0 -1.672,12.693 -14.56,15.57 h -98.203 l 26.776,-26.775 h 89.87 l 12.52,2.316 z"
         fill="#f4bd76"
         id="path6" />
      <path
         fill="#ffd69f"
         d="m 139.722,223.285 h -11.456 v 26.879 h 11.456 z"
         id="path7"
         style="display:inline" />
    </g>
    <g
       fill="#997afc"
       fill-rule="nonzero"
       id="g11"
       style="display:inline">
      <path
         d="m 318.795,142.326 c 0,40.946 -22.82,76.56 -56.436,94.822 -15.278,8.3 -32.789,-25.666 -51.4,-25.666 -16.401,0 -31.948,35.02 -45.865,28.47 -36.623,-17.235 -61.972,-54.47 -61.972,-97.626 0,-59.556 48.28,-107.836 107.837,-107.836 59.556,0 107.836,48.28 107.836,107.836"
         id="path8" />
      <path
         d="m 343.395,181.275 c 0,26.505 -21.487,47.992 -47.992,47.992 -26.505,0 -47.992,-21.487 -47.992,-47.992 0,-26.505 21.487,-47.992 47.992,-47.992 26.505,0 47.992,21.487 47.992,47.992 M 203.828,287.483 c -6.875,0 -12.5,-5.626 -12.5,-12.5 v -61 c 0,-6.875 5.625,-12.5 12.5,-12.5 6.875,0 12.5,5.625 12.5,12.5 v 61 c 0,6.874 -5.625,12.5 -12.5,12.5"
         id="path9" />
      <path
         d="m 244.744,178.15 c 19.887,0 36.007,16.12 36.007,36.006 0,19.887 -16.12,36.007 -36.007,36.007 -19.887,0 -36.007,-16.12 -36.007,-36.007 m -8.335,5.667 c 0,16.756 -13.584,30.34 -30.34,30.34 -16.757,0 -30.34,-13.584 -30.34,-30.34 0,-16.756 13.583,-30.34 30.34,-30.34 16.756,0 30.34,13.584 30.34,30.34"
         id="path10" />
      <path
         d="m 170.062,181.275 c 0,26.505 -21.487,47.992 -47.992,47.992 -26.506,0 -47.992,-21.487 -47.992,-47.992 0,-26.505 21.486,-47.992 47.992,-47.992 26.505,0 47.992,21.487 47.992,47.992"
         id="path11" />
    </g>
    <g
       transform="matrix(1,0,0,-1,73.112,287.904)"
       id="g12"
       style="display:inline">
      <mask
         id="b"
         fill="#ffffff">
        <use
           xlink:href="#a"
           id="use11" />
      </mask>
      <path
         fill="#8673ff"
         fill-rule="nonzero"
         mask="url(#b)"
         d="M 292.52,44.733 18.204,-13.574 13.123,10.336 287.437,68.643 Z M 292.137,94.65 17.821,36.342 l -5.082,23.91 274.316,58.307 z m -30.009,43.477 -274.316,-58.307 -5.082,23.911 274.316,58.308 z m 8.287,51.853 -274.315,-58.306 -5.082,23.91 274.316,58.308 z m 0,50.084 -274.315,-58.308 -5.082,23.91 274.316,58.309 z"
         id="path12" />
    </g>
    <g
       opacity="0.5"
       transform="matrix(1,0,0,-1,73.445,287.57)"
       id="g14"
       style="display:none">
      <mask
         id="d"
         fill="#ffffff">
        <use
           xlink:href="#c"
           id="use12" />
      </mask>
      <path
         d="m 130.827,0.088 c 0,0 4.91,1.258 4.91,10.962 v 77.704 c 0,0 2.66,-15.125 7.59,-21.006 V 14.754 c 0,0 0.666,-15.556 -12.5,-14.666 m -12.944,54.666 c 0,0 -20.543,-19.082 -43.494,-7.652 0,0 18.494,-22.621 43.494,-0.988 z m 42.299,196.029 c 1.815,-0.393 76.282,-27.076 74.38,-98.052 0,0 32.304,-19.97 19.43,-57.643 -9,-26.341 -46.242,-27.341 -46.242,-27.341 l -3.78,-10.39 36.69,-19.95 60.333,40.348 -16.667,121.667 -69.333,67.333 -54.81,-15.972 z"
         fill="#7251ed"
         fill-rule="nonzero"
         mask="url(#d)"
         id="path13" />
      <path
         d="m 205.915,84.765 c 0,0 -1.944,-27.409 -22.032,-33.228 -25.34,-7.34 -40.556,16.21 -40.556,16.21 V 41.865 l 21.444,-23.556 c 0,0 41.176,14.667 41.144,15.334 -0.032,0.666 1.835,34.104 1.835,34.104 0,0 1.31,5.696 -1.835,17.018"
         fill="#7251ed"
         fill-rule="nonzero"
         mask="url(#d)"
         id="path14" />
    </g>
    <g
       id="g24">
      <path
         d="m 271.493,166.79 a 5.112,5.112 0 1 1 -10.222,-0.002 5.112,5.112 0 0 1 10.222,0.002"
         fill="#ffffff"
         fill-rule="nonzero"
         id="path15" />
      <path
         d="m 301.379,147.325 c -9.967,-4.675 -23.8,-2.266 -28.579,7.594"
         stroke="#ffffff"
         stroke-width="8"
         stroke-linecap="round"
         stroke-linejoin="round"
         id="path16" />
      <path
         d="m 90.887,163.06 a 4.689,4.689 0 0 1 -4.682,4.698 c -2.585,0 -4.681,-2.102 -4.681,-4.697 0,-2.595 2.096,-4.697 4.681,-4.697 a 4.689,4.689 0 0 1 4.682,4.697"
         fill="#ffffff"
         fill-rule="nonzero"
         id="path17" />
      <path
         d="m 94.57,153.998 c 0.274,-0.212 6.843,-12.774 25.176,-10.515 m 34.494,-73.63 c 0,0 -16.889,12.478 -25.15,37.189"
         stroke="#ffffff"
         stroke-width="8"
         stroke-linecap="round"
         stroke-linejoin="round"
         id="path18" />
      <path
         d="m 169.55,61.927 a 5.112,5.112 0 1 1 -10.222,-0.002 5.112,5.112 0 0 1 10.222,0.002"
         fill="#ffffff"
         fill-rule="nonzero"
         id="path19" />
    </g>
    <g
       fill-rule="nonzero"
       id="g21">
      <path
         d="m 172.362,141.225 c 0,5.77 -4.676,10.444 -10.444,10.444 -5.77,0 -10.446,-4.675 -10.446,-10.444 0,-5.768 4.676,-10.444 10.446,-10.444 5.768,0 10.444,4.676 10.444,10.444 m 92.971,1 c 0,5.77 -4.676,10.444 -10.444,10.444 -5.768,0 -10.445,-4.675 -10.445,-10.444 0,-5.768 4.677,-10.444 10.445,-10.444 5.768,0 10.444,4.676 10.444,10.444 m -75.183,5.445 c -2.246,0 -3.937,2.064 -3.486,4.265 1.973,9.647 10.509,16.904 20.738,16.904 10.23,0 18.767,-7.257 20.74,-16.904 0.45,-2.201 -1.24,-4.265 -3.486,-4.265 z"
         fill="#0c0f1e"
         id="path20"
         style="display:inline" />
      <path
         d="m 217.226,161.679 c 0,2.621 -4.21,4.746 -9.405,4.746 -5.195,0 -9.405,-2.125 -9.405,-4.746 0,-2.622 4.21,-4.747 9.405,-4.747 5.195,0 9.405,2.125 9.405,4.747"
         fill="#ff94eb"
         id="path21" />
    </g>
    <path
       d="m 41.413,141.483 h 15.11 m -7.555,-7.556 v 15.111 m 282.445,87.445 h 15.11 m -7.555,-7.556 v 15.111 M 334.413,50.483 h 15.11 m -7.555,-7.556 v 15.111"
       stroke="#ffffff"
       stroke-linecap="round"
       stroke-linejoin="round"
       stroke-width="4"
       id="path22"
       style="display:none" />
    <path
       d="m 68.413,93.705 a 2.223,2.223 0 1 1 -4.446,0 2.223,2.223 0 0 1 4.446,0 m -4,77.333 a 2.223,2.223 0 1 1 -4.446,0 2.223,2.223 0 0 1 4.446,0 m 42.667,69.333 a 2.2235,2.2235 0 1 1 -4.447,0 2.223,2.223 0 0 1 4.446,0 m 10.667,24 a 2.223,2.223 0 1 1 -4.446,0 2.223,2.223 0 0 1 4.446,0 m 242.667,-53.333 a 2.223,2.223 0 1 1 -4.446,0 2.223,2.223 0 0 1 4.446,0 M 307.08,37.705 a 2.2235,2.2235 0 1 1 -4.447,0 2.223,2.223 0 0 1 4.446,0 M 160.413,24.371 a 2.223,2.223 0 1 1 -4.446,0 2.223,2.223 0 0 1 4.446,0 m -18.667,-4 a 2.223,2.223 0 1 1 -4.446,0 2.223,2.223 0 0 1 4.446,0"
       fill="#ffffff"
       fill-rule="nonzero"
       id="path23"
       style="display:none" />
  </g>
</svg>
