<?xml version="1.0" encoding="UTF-8" standalone="no"?>
<svg
   id="Layer_1"
   data-name="Layer 1"
   viewBox="0 0 136.23 39.681996"
   version="1.1"
   width="136.23"
   height="39.681995"
   xmlns="http://www.w3.org/2000/svg"
   xmlns:svg="http://www.w3.org/2000/svg">
  <defs
     id="defs1">
    <style
       id="style1">.cls-1{fill:#2a6ebb;}.cls-2{fill:#b7a66d;}</style>
  </defs>
  <path
     class="cls-1"
     d="M 94.13,38.93 V 22.57 h -9.25 v 16.36 h -10 V 0 h 10 v 14.3 h 9.25 V 0 h 10 v 38.93 z"
     id="path1" />
  <path
     class="cls-1"
     d="M 127.08,38.93 117,18.29 v 20.64 h -9 V 0 h 9.11 l 10.12,20.46 V 0 h 9 v 38.93 z"
     id="path2" />
  <path
     class="cls-1"
     d="M 61.082079,25.79 V 0 H 71 V 27.38 C 71,36.22 65.505472,39.55 56.5,39.55 47.24658,39.55 42,36.22 42,27.38 V 0 h 9.858413 v 25.79 c 0,3.33 0.991792,5.6 4.591997,5.6 3.600206,0 4.631669,-2.23 4.631669,-5.6 z"
     id="path3"
     style="stroke-width:0.995888" />
  <path
     class="cls-2"
     d="m 1.5427046,27.87 a 0.19,0.19 0 0 0 0.25,0.05 5.19,5.19 0 0 0 1.52,-3.12 5.16,5.16 0 0 1 3.12,-3.61 c 1.68,-0.69 3,-0.76 5.0000004,-2.48 3.34,-2.92 1.78,-5.32 5.75,-7.73 a 0.15,0.15 0 0 0 0,-0.19 0.15,0.15 0 0 0 -0.13,-0.07 15.86,15.86 0 0 0 -8.3900004,2 13.76,13.76 0 0 0 -7,10.13 0.08,0.08 0 0 1 -0.08,0.07 0.07,0.07 0 0 1 -0.07,-0.08 c 0.35,-6 3.82,-10.87 9.3600004,-12.73 a 12.61,12.61 0 0 1 10.12,0.47 10.22,10.22 0 0 1 2.86,2.19 0.1,0.1 0 0 0 0.16,-0.1 c 0,-0.26 0,-0.49 0,-0.72 a 0.2,0.2 0 0 0 -0.13,-0.19 20.24,20.24 0 0 1 -6.53,-5.6 c -0.63,-0.83 -1.91,-2.28 -3.21,-1.53 a 3.12,3.12 0 0 0 -1.08,1 1.18,1.18 0 0 1 -1.48,0.07 0.88,0.88 0 0 0 -0.94,1 c 0,0.15 -0.12,0.21 -0.17,0.15 a 0.94,0.94 0 0 0 -1.4800004,0 c 0,0.35 -0.45,1.23 -1.07,0.84 -0.71,-0.56 -1.48,-0.54 -1.82,0.08 a 27.27,27.27 0 0 1 -1.9,3.6 c -0.73,0.92 -3,1.75 -3.40000001,3 A 20.51,20.51 0 0 0 1.5527046,27.88"
     id="path6" />
  <path
     class="cls-2"
     d="m 35.922705,32.07 a 0.2,0.2 0 0 0 -0.08,-0.25 5.2,5.2 0 0 0 -3.44,0.23 5.1,5.1 0 0 1 -4.65,-0.91 c -1.43,-1.14 -2.16,-2.27 -4.62,-3.13 -4.18,-1.48 -5.46,1.09 -9.51,-1.17 a 0.13,0.13 0 0 0 -0.19,0.05 0.14,0.14 0 0 0 0,0.15 16,16 0 0 0 5.91,6.32 13.58,13.58 0 0 0 12.22,1.1 0.07,0.07 0 0 1 0.1,0 0.09,0.09 0 0 1 0,0.11 13.53,13.53 0 0 1 -15.67,-1.84 12.89,12.89 0 0 1 -4.65,-9 9.93,9.93 0 0 1 0.45,-3.59 0.1,0.1 0 0 0 -0.17,-0.09 l -0.6,0.39 a 0.19,0.19 0 0 0 -0.1,0.21 29.1,29.1 0 0 1 -2.1300004,11.1 1.39,1.39 0 0 0 0.3,1.44 c 0.43,0.47 0.81,0.34 1.3400004,0.62 0.53,0.28 0.69,0.87 0.82,1.21 a 0.6,0.6 0 0 0 0.73,0.22 0.19,0.19 0 0 1 0.1,0 1,1 0 0 0 0.34,0.64 c 0.16,0.08 1,-0.18 1.21,0.25 0.36,0.58 0,1.59 0.75,1.86 1.08,0 2.48,-0.51 3.72,-0.32 1.24,0.19 2.21,1.28 3.52,1.7 a 5.79,5.79 0 0 0 2.72,0.25 19.89,19.89 0 0 0 11.58,-7.54"
     id="path5" />
  <path
     class="cls-2"
     d="m 25.622705,7.6 c -0.26,1.82 -0.86,3 -0.37,5.61 0.83,4.39 3.67,4.23 3.75,8.9 a 0.12,0.12 0 0 0 0.14,0.13 0.13,0.13 0 0 0 0.12,-0.08 16.19,16.19 0 0 0 2.46,-8.33 13.81,13.81 0 0 0 -5.19,-11.2 0.08,0.08 0 0 1 0,-0.1 0.08,0.08 0 0 1 0.11,0 13.84,13.84 0 0 1 6.21,14.53 12.9,12.9 0 0 1 -5.41,8.58 10.1,10.1 0 0 1 -3.31,1.4 c -0.08,0 -0.08,0.16 0,0.19 0.08,0.03 0.44,0.21 0.64,0.32 a 0.18,0.18 0 0 0 0.23,0 20.31,20.31 0 0 1 8.06,-2.92 c 1,-0.13 3.18,-0.51 2.92,-2 -0.15,-0.61 -0.21,-1.13 -0.36,-1.72 -0.15,-0.59 0.42,-0.81 0.71,-1.05 0.31,-0.49 0,-0.86 -0.39,-1.17 -0.14,-0.1 -0.12,-0.2 0,-0.22 0.48,0 0.88,-0.42 0.78,-0.79 -0.1,-0.37 -0.87,-1.3 -0.27,-2.09 a 1.3,1.3 0 0 1 1,-0.67 0.81,0.81 0 0 0 0.52,-1.2 c -1.09,-1.38 -1.91,-2.37 -3,-3.74 -0.5,-1 0.82,-2.36 -0.37,-3.61 a 19.69,19.69 0 0 0 -12.26,-6.37 0.19,0.19 0 0 0 -0.18,0.19 5.29,5.29 0 0 0 1.93,2.89 5.2,5.2 0 0 1 1.53,4.52"
     id="path4" />
</svg>
